<?xml version="1.0" encoding="UTF-8" standalone="no"?>
<!-- Created with Inkscape (http://www.inkscape.org/) -->

<svg
   version="1.1"
   id="svg1"
   width="33.957996"
   height="34.291931"
   viewBox="0 0 33.957996 34.291931"
   xml:space="preserve"
   xmlns="http://www.w3.org/2000/svg"
   xmlns:svg="http://www.w3.org/2000/svg"><defs
     id="defs1" /><g
     id="g1"
     transform="translate(39.793102,-766.37207)"><g
       style="fill:none"
       id="g44"
       transform="matrix(1.6979,0,0,1.6979,-45.205283,767.31927)"><ellipse
         style="display:inline;opacity:0.3;fill:#ffffff;fill-opacity:1;stroke:#b0e2e2;stroke-width:0.235116;stroke-opacity:0.294393"
         id="path44"
         cx="13.310923"
         cy="10.903728"
         rx="7.0493078"
         ry="8.6175127" /><path
         d="m 23.187572,9.4421517 c 0,-5.52286 -4.4771,-10.00000997 -10,-10.00000997 -5.5228496,0 -9.9999996,4.47714997 -9.9999996,10.00000997 0,4.9913003 3.65686,9.1283003 8.4374996,9.8785003 v -6.9879 H 9.0860124 V 9.4421517 h 2.5390596 v -2.20313 c 0,-2.50625 1.4929,-3.89063 3.7771,-3.89063 1.0941,0 2.2385,0.19531 2.2385,0.19531 v 2.46094 h -1.261 c -1.2422,0 -1.6296,0.77084 -1.6296,1.56171 v 1.8758 h 2.7734 l -0.4433,2.8906003 h -2.3301 v 6.9879 c 4.7806,-0.7502 8.4375,-4.8872 8.4375,-9.8785003 z"
         fill="#000000"
         id="path1-1"
         style="fill:#1c4d2f;fill-opacity:1" /></g></g></svg>
