<?xml version="1.0" encoding="UTF-8" standalone="no"?>
<!-- Created with Inkscape (http://www.inkscape.org/) -->

<svg
   version="1.1"
   id="svg1"
   width="33.957996"
   height="34.162231"
   viewBox="0 0 33.957996 34.162231"
   xml:space="preserve"
   xmlns="http://www.w3.org/2000/svg"
   xmlns:svg="http://www.w3.org/2000/svg"><defs
     id="defs1" /><g
     id="g1"
     transform="translate(-38.556629,-752.21583)"><g
       id="g43"
       transform="matrix(0.13443565,0,0,0.13443565,63.69419,661.04389)"><rect
         style="opacity:0.3;fill:#ffffff;fill-opacity:1;stroke:#b0e2e2;stroke-width:4.7;stroke-opacity:0.294393"
         id="rect43"
         width="177.76534"
         height="166.5743"
         x="-146.34435"
         y="722.6828" /><path
         style="fill:#1c4d2f;fill-opacity:1;stroke:none"
         d="m -70.597071,678.84434 c -22.770399,2.99858 -44.012099,8.94159 -62.999999,22.48535 -14.076,10.04022 -25.9886,22.28873 -34.9969,37.09027 -41.9865,68.98828 -9.1963,163.18916 68.9969,187.97145 18.4915,5.86064 37.835499,7.18916 56.999999,4.74306 17.4399,-2.22597 34.0500998,-8.61904 48.9999978,-17.71759 C 82.266727,867.24592 85.903027,753.13613 13.402927,702.01023 0.62722682,693.00105 -13.433071,686.35503 -28.597071,682.5465 c -13.3971,-3.36478 -28.1974,-5.51979 -42,-3.70216 m -23.999999,51.86111 c 9.4723,-1.13286 19.465699,-0.28549 28.999999,-0.28549 23.0234,0 55.3519,-5.28862 71.0724978,16.00386 10.7341002,14.53861 8.9275002,32.95587 8.9275002,49.99614 0,26.33398 6.6366,66.04364 -22.9999982,79.48225 -5.2817998,2.39502 -11.2737998,3.52823 -16.9999998,4.2315 -9.4597,1.16177 -19.475,0.28625 -29,0.28625 -22.9141,0 -55.262199,5.453 -71.481499,-15.00386 -11.4491,-14.44048 -9.5185,-33.74703 -9.5185,-50.99614 0,-27.36693 -6.5225,-65.92679 24,-79.68674 5.3915,-2.43054 11.1703,-3.33055 17,-4.02777 m 9,13.13889 c -10.6115,1.39331 -21.8103,0.52749 -29.4707,9.66897 -6.2282,7.43241 -5.843,15.9114 -6.699,24.90665 -1.7295,18.17343 -1.1658,36.82149 0.08,55 0.6159,8.98529 0.7883,17.77693 7.4182,24.81482 7.3283,7.77937 16.9675,7.43149 26.6713,8.35493 20.547399,1.95537 43.528299,2.48131 63.999999,-0.46991 29.8015978,-4.29623 24.9999978,-40.38617 24.9999978,-62.69984 0,-7.64874 0.4213,-15.40726 -0.57559998,-23 -1.1624,-8.85266 -0.2358,-17.13547 -5.53249802,-24.98534 -6.3002998,-9.33737 -16.6763998,-10.40068 -26.8918998,-11.10417 -17.435,-1.20067 -36.5895,-2.77214 -53.999999,-0.48611 m 63.003799,13.01388 c 11.3506,-2.95225 15.0723998,14.5835 3.9923,17.08797 -10.8538,2.45331 -14.9079,-14.24884 -3.9923,-17.08797 m -40.0038,9.86266 c 27.3593,-2.68982 47.162,27.02601 38.4522,51.69908 -5.3253,15.08524 -18.8909,24.16916 -34.4522,25.69907 -27.073499,2.66175 -46.443599,-26.21372 -38.779299,-50.69907 4.8875,-15.61427 18.939799,-25.14183 34.779299,-26.69908 m -3,14.16667 c -31.908799,6.02806 -21.769299,55.0665 10,49.06482 31.9088,-6.02802 21.7694,-55.06654 -10,-49.06482 z"
         id="path43" /></g></g></svg>
