<?xml version="1.0" encoding="UTF-8" standalone="no"?>
<!-- Created with Inkscape (http://www.inkscape.org/) -->

<svg
   version="1.1"
   id="svg1"
   width="33.957954"
   height="33.958313"
   viewBox="0 0 33.957954 33.958313"
   xml:space="preserve"
   xmlns="http://www.w3.org/2000/svg"
   xmlns:svg="http://www.w3.org/2000/svg"><defs
     id="defs1" /><g
     id="g1"
     transform="translate(-126.72953,-753.09485)"><g
       id="g11-3-2"
       transform="matrix(0.06104034,0,0,0.06104034,-46.412614,734.54756)"
       style="display:inline"><g
         id="g10-1-2"><path
           id="path34-9-1"
           d="m 25446.3,9891.98 c 0,-1152.19 -934,-2086.22 -2086.2,-2086.22 -1152.2,0 -2086.2,934.03 -2086.2,2086.22 0,1152.22 934,2086.22 2086.2,2086.22 1152.2,0 2086.2,-934 2086.2,-2086.22"
           style="fill:#1c4d2f;fill-opacity:1;fill-rule:nonzero;stroke:none"
           transform="matrix(0.13333333,0,0,-0.13333333,0,1900.9467)" /><path
           id="path35-8-6"
           d="m 22426.5,10235.4 c 0.7,-27.7 2.9,-55.5 6.8,-83.3 30.1,-219.13 155.8,-414.05 270.3,-598.13 147.6,-237.33 301,-471 455.4,-703.97 27.7,-41.93 55.6,-83.83 83.4,-125.74 93.3,-140.47 145.2,-140.7 236.2,-3.93 239,359.21 481.5,716.99 700.9,1088.17 195,329.9 131.8,758.8 -121.3,1042.2 -261,292.2 -658.6,391.3 -1019.8,254.1 -186,-70.7 -346.8,-198.6 -457.1,-364.3 -99.6,-149.7 -159.2,-325.7 -154.8,-505.1"
           style="fill:#ffffff;fill-opacity:0.978972;fill-rule:nonzero;stroke:none"
           transform="matrix(0.13333333,0,0,-0.13333333,0,1900.9467)" /></g><path
         id="path36-6-8"
         d="m 23739.7,10271.6 c 0,-209.7 -169.9,-379.62 -379.6,-379.62 -209.6,0 -379.6,169.92 -379.6,379.62 0,209.6 170,379.5 379.6,379.5 209.7,0 379.6,-169.9 379.6,-379.5"
         style="fill:#1c4d2f;fill-opacity:1;fill-rule:nonzero;stroke:none"
         transform="matrix(0.13333333,0,0,-0.13333333,0,1900.9467)" /></g></g></svg>
