<?xml version="1.0" encoding="UTF-8"?>
<svg id="Capa_2" data-name="Capa 2" xmlns="http://www.w3.org/2000/svg" viewBox="0 0 780.87 285.42">
  <defs>
    <style>
      .cls-1 {
        fill: #fff;
      }
    </style>
  </defs>
  <g id="Capa_1-2" data-name="Capa 1">
    <g>
      <g>
        <path class="cls-1" d="m91.18,170.43c-2.3-6.14-5.72-10.85-10.28-14.14-4.55-3.28-9.83-5.12-15.8-5.52-5.97-.41-12.27.47-18.74,3.04-8.9,3.54-35.3,14.92-35.3,14.92l31.72,85.07,22.77-8.48-10.49-28.09,12.55-4.69c7.27-2.73,13.04-6.18,17.32-10.39,4.28-4.18,6.96-8.98,8.07-14.34,1.1-5.36.49-11.17-1.83-17.4Zm-23.06,17.84c-1.63,2.34-4.42,4.25-8.32,5.72l-11.77,4.39-7.96-19.11,12.29-5.58c3.68-1.36,6.94-1.69,9.81-1,2.87.69,5,2.9,6.38,6.6,1.35,3.64,1.22,6.63-.42,8.98Z"/>
        <path class="cls-1" d="m168.25,214.12l27.76-7.33-32.79-30.8c3.04-2.05,5.64-4.55,7.76-7.52,2.15-2.99,3.57-6.33,4.29-10.06.72-3.71.52-7.74-.63-12.08-1.55-5.81-4.26-10.42-8.13-13.81-3.87-3.37-8.64-5.45-14.29-6.28-5.67-.83-11.94-.5-18.7,1.46-9.22,2.68-36.61,11.63-36.61,11.63l23.13,87.55,23.49-6.21-8.42-31.85,6.39-1.69,26.74,27Zm-38.04-43.88l-5.25-19.79,11.32-2.99c3.9-1.03,7.16-1.08,9.76-.13,2.6.96,4.37,3.21,5.31,6.8.94,3.53.45,6.35-1.41,8.46-1.88,2.1-4.8,3.68-8.76,4.73l-10.97,2.92Z"/>
        <path class="cls-1" d="m287.8,146.31c-.8-6.71-2.79-12.79-5.94-18.29-3.15-5.49-7.19-10.14-12.16-13.98-4.97-3.82-10.58-6.61-16.85-8.34-6.25-1.72-12.95-2.16-20.08-1.29-7.12.86-13.54,2.85-19.23,5.99-5.69,3.13-10.5,7.13-14.37,11.97-3.89,4.87-6.69,10.36-8.42,16.46-1.72,6.1-2.16,12.57-1.35,19.4.83,6.76,2.81,12.91,5.92,18.42,3.15,5.53,7.18,10.19,12.12,13.96,4.94,3.81,10.55,6.55,16.83,8.24,6.28,1.69,12.98,2.13,20.09,1.25,7.13-.86,13.53-2.87,19.2-6.02,5.66-3.15,10.47-7.16,14.37-12.01,3.9-4.87,6.74-10.36,8.48-16.47,1.74-6.11,2.21-12.55,1.38-19.31Zm-25.81,13.7c-.8,3.24-2.13,6.1-4.01,8.56-1.87,2.46-4.19,4.47-6.96,6-2.76,1.52-5.88,2.51-9.39,2.93-4.62.56-8.86.03-12.68-1.58-3.84-1.61-7.02-4.2-9.53-7.73-2.52-3.53-4.08-7.87-4.7-13.04-.47-3.84-.31-7.4.47-10.66.77-3.28,2.12-6.11,3.98-8.57,1.88-2.43,4.2-4.42,6.99-5.97,2.79-1.52,5.91-2.49,9.37-2.93,4.61-.55,8.86-.03,12.71,1.58,3.87,1.63,7.04,4.2,9.56,7.73,2.49,3.54,4.08,7.88,4.7,13.04.45,3.84.3,7.38-.52,10.64Z"/>
        <path class="cls-1" d="m381.9,141.24c-.38-9.11-2.74-17.05-7.08-23.84-4.37-6.77-10.28-11.97-17.77-15.56-7.49-3.57-16.11-5.53-25.8-4.78-8.15.63-32.57,1.97-32.57,1.97l3.76,91.73,32.6-1.33c7.3-.31,13.89-1.69,19.78-4.17,5.89-2.46,10.91-5.81,15.03-10.06,4.12-4.25,7.22-9.25,9.32-15.03,2.1-5.75,3.01-12.07,2.73-18.93Zm-26.8,11.38c-1.03,2.98-2.6,5.5-4.67,7.6-2.07,2.08-4.58,3.68-7.48,4.76-2.9,1.08-6.16,1.69-9.76,1.83l-7.38.31-1.94-47.18,7.38-.3c4.8-.19,9.03.52,12.74,2.13,3.7,1.6,6.64,4.12,8.84,7.55,2.19,3.45,3.4,7.76,3.61,12.93.16,3.92-.28,7.38-1.33,10.34Z"/>
        <path class="cls-1" d="m452.87,96.81l-1.6,54.86c-.16,5.67-1.68,9.86-4.51,12.52-2.87,2.66-6.82,3.93-11.88,3.78-5.05-.14-8.95-1.65-11.66-4.47-2.71-2.84-3.98-7.08-3.82-12.76l1.6-54.84-24.29-.71-1.57,53.73c-.23,7.96,1.1,15.03,3.98,21.25,2.88,6.21,7.26,11.11,13.12,14.73,5.85,3.64,13.18,5.58,21.99,5.83,8.81.27,16.24-1.27,22.32-4.58,6.1-3.29,10.77-7.96,14-13.98,3.23-6.03,4.97-13.01,5.19-20.92l1.57-53.73-24.42-.72Z"/>
        <path class="cls-1" d="m546.23,178.86c-4.17.22-8.18-.16-12.02-1.13-5.2-1.33-9.42-3.39-12.62-6.25-3.21-2.84-5.36-6.27-6.39-10.3-1.07-4.04-.99-8.54.28-13.48.92-3.67,2.29-6.83,4.14-9.48,1.82-2.65,4.04-4.75,6.63-6.28,2.6-1.55,5.53-2.49,8.87-2.84,3.31-.34,6.9-.02,10.78.97,4.18,1.08,7.81,2.66,10.86,4.8,3.06,2.15,5.49,4.8,7.24,7.9l16.55-16.36c-3.31-4.65-7.29-8.6-11.88-11.85-4.61-3.23-10.78-5.83-18.51-7.79-6.9-1.76-13.54-2.21-19.94-1.41-6.38.82-12.23,2.76-17.55,5.86-5.33,3.1-9.89,7.24-13.68,12.41-3.78,5.16-6.55,11.21-8.31,18.12-2.4,9.47-2.51,18.18-.28,26.16,2.24,7.96,6.43,14.73,12.59,20.31,6.14,5.58,13.84,9.56,23.16,11.91,7.95,2.02,15.06,2.77,21.42,2.24,6.35-.52,11.97-1.82,16.86-3.9l-5.75-22.44c-4.15,1.68-8.31,2.62-12.46,2.84Z"/>
        <path class="cls-1" d="m654.22,131.84l-26.74-7.1-59.27,82.22,26.8,5.6,10.17-15.31,30.11,8.34.78,17.05,26.39,7.62-8.24-98.41Zm-38.48,47.35l17.66-25.36,1.99,30.83-19.65-5.47Z"/>
        <path class="cls-1" d="m759.66,179.42c-1.18-4.98-3.82-9.48-7.95-13.45-4.11-3.97-9.47-7.19-16.05-9.7l-36.2-12.73-33.23,87.35,23.18,7.37,11.94-31.39,6.18,2.35,5.99,37.54,25.06,9.54,1.54.58.25.09-.09-.52-.61-3.06-8.01-40.58c3.68.13,7.26-.39,10.7-1.58,3.46-1.18,6.57-3.06,9.34-5.66,2.76-2.6,4.92-6,6.54-10.2,2.13-5.64,2.62-10.96,1.43-15.95Zm-24.9,8.73c-1.29,3.42-3.32,5.42-6.08,6.03-2.76.63-6.03.22-9.86-1.24l-10.63-4.04,7.29-19.12,10.91,4.14c3.79,1.46,6.46,3.31,8.02,5.61,1.55,2.29,1.68,5.16.35,8.62Z"/>
      </g>
      <g>
        <path class="cls-1" d="m341.45,220.63c-.6-1.07-1.43-1.9-2.49-2.49-1.07-.6-2.27-.89-3.65-.89h-4.26v14.06h4.26c1.02,0,1.97-.17,2.84-.52.86-.34,1.61-.83,2.24-1.46.63-.63,1.11-1.36,1.46-2.23.34-.85.52-1.79.52-2.82,0-1.36-.3-2.59-.91-3.65Zm-1.44,5.85c-.27.64-.63,1.19-1.1,1.65-.49.47-1.05.82-1.71,1.07-.66.24-1.4.36-2.21.36h-2.07v-10.55h2.07c1.08,0,2.04.22,2.84.64.82.42,1.44,1.03,1.9,1.83.44.8.67,1.72.67,2.81,0,.82-.14,1.54-.39,2.19Z"/>
        <path class="cls-1" d="m346.69,229.61v-4.87h6.05v-1.61h-6.05v-4.18h6.94v-1.69h-8.82v14.06h8.89v-1.69h-7.01Z"/>
        <path class="cls-1" d="m365.21,225.13c-.6-.6-1.5-1.08-2.76-1.44l-1.63-.49c-.74-.22-1.3-.44-1.72-.66-.41-.22-.7-.45-.88-.72-.16-.27-.25-.58-.25-.92,0-.5.14-.91.39-1.25.27-.34.63-.61,1.08-.78.47-.19,1-.27,1.61-.27.45,0,.91.05,1.35.14.44.09.86.24,1.25.42.38.19.72.41,1.03.66l.97-1.41c-.52-.45-1.16-.8-1.94-1.07-.77-.27-1.61-.39-2.52-.39-.72,0-1.4.09-2.01.28-.61.19-1.14.47-1.6.82-.45.36-.8.8-1.05,1.29-.23.5-.36,1.05-.36,1.68,0,.91.3,1.68.89,2.29.6.61,1.54,1.1,2.82,1.47l1.52.45c1.11.31,1.86.66,2.27,1.03.41.39.61.86.61,1.41,0,.75-.31,1.32-.91,1.71-.61.38-1.41.58-2.41.58-.5,0-1-.06-1.5-.16-.5-.11-.97-.27-1.41-.47-.44-.2-.83-.44-1.18-.74l-.96,1.49c.63.49,1.38.86,2.27,1.13.89.27,1.82.41,2.76.41,1.1,0,2.02-.17,2.79-.52.77-.34,1.35-.83,1.74-1.46.41-.61.6-1.33.6-2.15,0-.97-.28-1.76-.88-2.37Z"/>
        <path class="cls-1" d="m379,220.63c-.6-1.07-1.43-1.9-2.49-2.49-1.07-.6-2.29-.89-3.67-.89h-4.26v14.06h4.26c1.03,0,1.97-.17,2.85-.52.86-.34,1.6-.83,2.24-1.46.63-.63,1.11-1.36,1.46-2.23.35-.85.52-1.79.52-2.82,0-1.36-.3-2.59-.91-3.65Zm-1.44,5.85c-.27.64-.63,1.19-1.11,1.65-.47.47-1.03.82-1.69,1.07-.66.24-1.41.36-2.23.36h-2.05v-10.55h2.05c1.1,0,2.05.22,2.85.64.82.42,1.44,1.03,1.88,1.83.45.8.67,1.72.67,2.81,0,.82-.13,1.54-.38,2.19Z"/>
        <path class="cls-1" d="m384.24,229.61v-4.87h6.03v-1.61h-6.03v-4.18h6.94v-1.69h-8.82v14.06h8.87v-1.69h-6.99Z"/>
        <g>
          <path class="cls-1" d="m402.79,216.99l-5.88,2.19.49,1.44,3.76-1.39v12.05h1.77v-14.29h-.14Z"/>
          <path class="cls-1" d="m415.43,219.56c-.44-.83-1.07-1.47-1.85-1.91-.78-.44-1.69-.66-2.71-.66s-1.83.2-2.6.61c-.77.39-1.36.94-1.79,1.63-.44.69-.66,1.46-.66,2.32s.22,1.65.63,2.32c.41.67.96,1.21,1.68,1.58.71.38,1.49.56,2.37.56.72,0,1.4-.16,1.99-.49.61-.33,1.1-.78,1.47-1.33-.16.71-.41,1.39-.75,2.04-.36.66-.83,1.27-1.41,1.8-.58.53-1.28.99-2.1,1.35-.83.36-1.77.6-2.84.72l.66,1.49c1.24-.19,2.38-.55,3.42-1.05,1.05-.5,1.96-1.14,2.73-1.93.78-.78,1.38-1.68,1.82-2.7.42-1,.63-2.12.63-3.31s-.22-2.21-.67-3.06Zm-1.79,3.45c-.28.44-.66.78-1.14,1.03-.49.27-1.02.39-1.63.39s-1.13-.13-1.61-.39c-.49-.25-.86-.6-1.14-1.03-.28-.44-.44-.94-.44-1.49s.14-1.05.42-1.49c.27-.44.64-.77,1.13-1.02.49-.25,1.03-.38,1.65-.38s1.18.13,1.66.38c.49.25.85.58,1.13,1.02.27.44.41.92.41,1.49s-.14,1.05-.42,1.49Z"/>
          <path class="cls-1" d="m427.56,219.55c-.45-.83-1.07-1.47-1.85-1.91-.78-.44-1.69-.66-2.71-.66s-1.85.2-2.6.6c-.77.41-1.36.96-1.8,1.65-.42.69-.64,1.46-.64,2.32s.2,1.65.63,2.32c.41.67.96,1.19,1.66,1.58.7.38,1.5.56,2.38.56.72,0,1.38-.17,1.99-.5.6-.33,1.1-.77,1.46-1.32-.14.71-.39,1.38-.74,2.04-.36.66-.83,1.25-1.41,1.8-.58.53-1.29.99-2.1,1.35-.83.36-1.77.6-2.84.72l.66,1.47c1.24-.19,2.37-.53,3.42-1.03,1.05-.5,1.96-1.14,2.73-1.93.78-.78,1.38-1.68,1.8-2.7.44-1,.64-2.12.64-3.31s-.22-2.23-.67-3.06Zm-1.79,3.45c-.28.44-.67.78-1.14,1.03-.49.25-1.02.39-1.63.39s-1.13-.14-1.61-.39c-.49-.25-.88-.6-1.16-1.03-.28-.44-.42-.94-.42-1.49s.14-1.07.41-1.49c.28-.44.66-.78,1.14-1.03.49-.25,1.03-.38,1.65-.38s1.18.13,1.66.38c.47.25.85.6,1.13,1.03.27.42.39.92.39,1.49s-.14,1.05-.41,1.49Z"/>
          <path class="cls-1" d="m439.66,219.56c-.44-.83-1.07-1.47-1.85-1.91-.78-.44-1.69-.66-2.71-.66s-1.83.2-2.6.61c-.77.39-1.36.94-1.79,1.63-.44.69-.64,1.46-.64,2.32s.2,1.65.61,2.32c.41.67.96,1.21,1.68,1.58.71.38,1.49.56,2.37.56.72,0,1.4-.16,1.99-.49.61-.33,1.1-.78,1.47-1.33-.16.71-.41,1.39-.75,2.04-.36.66-.83,1.27-1.41,1.8-.58.53-1.28.99-2.1,1.35-.83.36-1.77.6-2.84.72l.66,1.49c1.24-.19,2.38-.55,3.42-1.05,1.05-.5,1.96-1.14,2.73-1.93.78-.78,1.38-1.68,1.82-2.7.42-1,.63-2.12.63-3.31s-.22-2.21-.67-3.06Zm-1.79,3.45c-.28.44-.66.78-1.14,1.03-.49.27-1.02.39-1.63.39s-1.13-.13-1.61-.39c-.49-.25-.86-.6-1.14-1.03-.28-.44-.42-.94-.42-1.49s.13-1.05.41-1.49c.27-.44.64-.77,1.13-1.02.49-.25,1.03-.38,1.65-.38s1.18.13,1.66.38c.49.25.86.58,1.13,1.02.27.44.41.92.41,1.49s-.14,1.05-.42,1.49Z"/>
        </g>
      </g>
      <path class="cls-1" d="m312.02,218.93c-2.3.05-4.64.24-4.84.25-88.02,6.82-173.89,25.64-256.42,56.22l1.72,4.61c80.46-29.86,166.04-49.1,255-56.09.16-.02,2.48-.19,4.76-.24,1.71-.03,3.4-.06,4.2-.08v-4.75c-.67,0-2.52.03-4.42.08Zm142.17-.09v4.75c95.78,7.08,187.65,28.41,273.52,61.83l1.72-4.61c-88.33-34.32-180.54-55.07-275.25-61.97Z"/>
      <path class="cls-1" d="m420.28,63.74l-3.31-4.81-9.97-14.58c2.37-.36,4.47-1.13,6.28-2.27,1.83-1.14,3.24-2.6,4.28-4.4,1.03-1.79,1.55-3.87,1.58-6.21.03-2.9-.6-5.41-1.9-7.51-1.29-2.13-3.13-3.78-5.53-4.94-2.38-1.16-5.23-1.77-8.53-1.82l-17.91-.22-.5,41.47-.06,4.7-.02,1.25,7.59.09.02-1.33.05-4.7.16-13.1,6.49.06,8.84,13.26,3.2,4.76.85,1.29,9.17.13-.77-1.13Zm-27.68-24.67l.19-15.56,9.62.13c3.06.05,5.36.77,6.85,2.19,1.52,1.41,2.27,3.37,2.23,5.88-.03,2.43-.89,4.31-2.63,5.6-1.71,1.29-4.11,1.93-7.18,1.88l-9.07-.11Z"/>
      <path class="cls-1" d="m253.43,67.64l-13.43-13.89c2.29-.78,4.23-1.87,5.83-3.31,1.61-1.41,2.77-3.1,3.48-5.03.71-1.96.88-4.07.53-6.41-.47-2.84-1.49-5.22-3.13-7.08-1.63-1.87-3.71-3.18-6.27-3.93-2.55-.75-5.47-.88-8.71-.36l-17.71,2.77,6.66,42.38.71,4.47,7.48-1.16-.72-4.59-2.24-14.33,6.39-1,12.05,12.77,3.87,4.11,9.06-1.44-3.84-3.97Zm-28.51-16.71l-2.4-15.34,9.48-1.49c3.04-.49,5.42-.16,7.15,1,1.72,1.14,2.77,2.96,3.17,5.44.38,2.4-.17,4.39-1.66,5.94-1.47,1.57-3.73,2.57-6.77,3.06l-8.97,1.39Z"/>
      <path class="cls-1" d="m192.49,82.03l.19.78-7.34,1.8C119.21,98.91,54.81,121.04,1.72,144.21l-1.72-4.58c3.79-1.6,11.72-4.89,14.07-5.89,55.2-23.34,112-41.31,170.07-53.84l-.25-1.02-10.05-40.25,28.43-7.08,1.68,6.74-21.06,5.27,3.31,13.23,19.11-4.76,1.63,6.58-19.09,4.76,3.46,13.93,1.19,4.73Z"/>
      <polygon class="cls-1" points="263.95 71.01 263.95 70.98 263.41 66.22 258.65 23.89 266.19 23.04 270.94 65.28 271.47 70.03 271.49 70.17 263.95 71.01"/>
      <path class="cls-1" d="m320.68,63.01c-1.18.91-2.68,1.76-4.48,2.51-.17.06-.35.14-.52.2-1.66.64-3.37,1.19-5.13,1.61-1.94.45-3.68.75-5.22.86-3.5.27-6.79.02-9.87-.77-.24-.05-.47-.11-.71-.17-2.95-.83-5.59-2.07-7.96-3.75-.27-.19-.53-.38-.78-.58-2.57-1.96-4.62-4.4-6.18-7.33-1.57-2.92-2.48-6.25-2.76-10.01-.28-3.73.11-7.16,1.16-10.3,1.07-3.12,2.66-5.86,4.81-8.2,2.13-2.35,4.73-4.22,7.76-5.63,3.03-1.41,6.39-2.24,10.09-2.52,1.71-.13,3.45-.13,5.23.02,1.77.14,3.54.45,5.28.94,1.74.49,3.43,1.21,5.03,2.16l-2.85,6.19c-1.8-.96-3.71-1.63-5.75-2.02-2.02-.39-4.11-.5-6.22-.34-2.74.2-5.2.8-7.37,1.8-2.18.97-3.98,2.29-5.45,3.95-1.46,1.68-2.52,3.62-3.2,5.86-.69,2.27-.94,4.75-.72,7.46.28,3.84,1.35,7.04,3.15,9.59,1.82,2.57,4.22,4.44,7.18,5.6,2.93,1.18,6.28,1.63,10,1.33,1.82-.14,3.45-.44,4.89-.88,1.44-.45,2.59-.96,3.45-1.47l-.85-11.43-10.74.82-.49-6.27,17.54-1.33,1.49,19.72.17,2.38Z"/>
      <path class="cls-1" d="m374.57,30.89c-1.33-2.95-3.17-5.53-5.49-7.73-2.33-2.19-5.01-3.89-8.07-5.06-3.06-1.19-6.35-1.72-9.9-1.61-3.57.09-6.85.8-9.84,2.13-3.02,1.32-5.61,3.13-7.79,5.42-2.18,2.3-3.86,4.97-5.03,8.01-1.18,3.04-1.69,6.32-1.61,9.84.09,3.5.83,6.72,2.16,9.69,1.33,2.98,3.15,5.55,5.47,7.73.16.16.33.31.5.44,2.05,1.85,4.44,3.32,7.1,4.37.14.06.3.13.45.19,3.07,1.18,6.39,1.71,9.97,1.6,3.53-.09,6.8-.8,9.8-2.13.28-.13.56-.27.85-.41,2.54-1.25,4.8-2.87,6.72-4.84.08-.06.14-.14.2-.2,2.19-2.3,3.89-4.97,5.05-8.01,1.18-3.04,1.71-6.3,1.61-9.81-.11-3.45-.82-6.65-2.15-9.61Zm-6.88,17.07c-.82,2.18-1.96,4.06-3.45,5.66-1.5,1.58-3.26,2.82-5.31,3.7-2.04.88-4.26,1.36-6.66,1.43-3.18.08-6.11-.56-8.71-1.93-2.59-1.38-4.69-3.37-6.27-5.96-1.58-2.57-2.43-5.64-2.52-9.2-.08-2.66.3-5.08,1.1-7.26.82-2.18,1.97-4.06,3.48-5.64,1.49-1.58,3.28-2.81,5.31-3.68s4.26-1.36,6.66-1.43c3.18-.08,6.07.56,8.68,1.93,2.62,1.38,4.72,3.37,6.28,5.96,1.58,2.57,2.41,5.64,2.51,9.2.06,2.63-.3,5.05-1.1,7.23Z"/>
      <path class="cls-1" d="m435.83,0l-6.03,11.63,6.77.24,6.82-11.58-7.55-.28Z"/>
      <polygon class="cls-1" points="437.2 17.99 435.69 59.57 435.52 64.29 435.49 65.37 427.9 65.11 427.95 63.95 428.12 59.23 429.61 17.71 437.2 17.99"/>
      <polygon class="cls-1" points="456.02 25.81 455.2 39.43 474.84 40.61 474.43 47.36 454.78 46.2 453.93 60.65 453.65 65.37 453.6 66.22 446.03 65.76 446.08 64.89 446.36 60.17 448.86 18.43 478.09 20.17 477.68 27.1 456.02 25.81"/>
      <polygon class="cls-1" points="495.03 21.64 491.41 63.95 491 68.69 490.98 68.9 483.41 68.24 483.45 67.91 483.85 63.16 487.46 21 495.03 21.64"/>
      <path class="cls-1" d="m538.14,63.11l2.74,6.79c-.31.19-.63.38-.94.55-2.23,1.21-4.67,2.07-7.3,2.59-1.38.27-2.82.44-4.33.49-1.79.08-3.65,0-5.61-.24-2.37-.28-4.54-.78-6.57-1.5-2.16-.77-4.12-1.79-5.88-3.06-1.24-.89-2.37-1.88-3.37-2.98-1.76-1.9-3.13-4.09-4.15-6.6-1.57-3.93-2.08-8.37-1.49-13.29.42-3.59,1.43-6.82,2.99-9.65,1.54-2.85,3.56-5.25,6-7.18,2.44-1.94,5.23-3.34,8.35-4.2,3.13-.86,6.47-1.07,10.05-.64,3.59.44,6.63,1.25,9.14,2.46,2.51,1.21,4.62,2.76,6.38,4.65l-4.62,5.69c-1.32-1.54-2.93-2.77-4.81-3.67-1.91-.92-4.03-1.52-6.41-1.8-2.63-.3-5.05-.19-7.24.36-2.21.56-4.15,1.49-5.81,2.81-1.66,1.3-3.03,2.99-4.08,5-1.07,2.02-1.74,4.37-2.05,7.04-.44,3.64-.11,6.83,1.02,9.58,1.11,2.76,2.9,4.95,5.36,6.63,2.43,1.68,5.45,2.71,9.01,3.15,2.37.28,4.7.19,7.01-.25,2.3-.44,4.5-1.33,6.61-2.71Z"/>
      <path class="cls-1" d="m759.87,133.74c-57.61-24.36-116.95-42.87-177.67-55.44-.05-.02-.08-.02-.12-.03.03,0,.06-.02.09-.03.02-.02.05-.02.06-.03,1.07-.52,2.07-1.1,3.06-1.76,2.65-1.76,4.86-4,6.64-6.72,1.8-2.7,3.03-5.77,3.68-9.22.66-3.4.64-6.68-.02-9.86-.67-3.17-1.9-6.08-3.68-8.73-1.82-2.63-4.08-4.87-6.8-6.68-2.73-1.82-5.83-3.04-9.32-3.71s-6.86-.69-10.08-.05c-3.21.66-6.14,1.87-8.78,3.64-2.62,1.79-4.84,4.03-6.63,6.72-1.8,2.73-3.02,5.81-3.7,9.28-.64,3.43-.64,6.74.02,9.94.67,3.18,1.9,6.08,3.68,8.7.67.99,1.41,1.91,2.23,2.79l.12.13c1.3,1.39,2.77,2.62,4.45,3.71,2.23,1.47,4.72,2.57,7.46,3.28.63.17,1.27.31,1.91.44.66.11,1.32.22,1.96.3h.02s.06,0,.09.02v.11c68.35,13.23,148.59,39.65,210.47,67.55l1.85-4.91c-4.28-1.9-19.31-8.71-21-9.44Zm-185.24-60.64c-2.18.41-4.45.41-6.79-.05-3.17-.6-5.86-1.85-8.1-3.75-2.24-1.93-3.86-4.31-4.86-7.18-.99-2.87-1.14-6.03-.47-9.51.5-2.62,1.38-4.91,2.63-6.86,1.25-1.94,2.79-3.53,4.61-4.75,1.8-1.22,3.81-2.04,5.99-2.46,2.18-.42,4.45-.41,6.8.05,3.12.6,5.81,1.85,8.07,3.75,2.26,1.91,3.87,4.29,4.86,7.16.97,2.87,1.13,6.05.45,9.53-.49,2.59-1.36,4.87-2.63,6.82-1.25,1.96-2.79,3.54-4.58,4.78-1.8,1.22-3.79,2.05-5.99,2.48Z"/>
    </g>
  </g>
</svg>