<?xml version="1.0" encoding="UTF-8"?>
<svg id="Capa_2" data-name="Capa 2" xmlns="http://www.w3.org/2000/svg" viewBox="0 0 752.7 232.04">
  <defs>
    <style>
      .cls-1 {
        fill: #fff;
      }
    </style>
  </defs>
  <g id="Capa_1-2" data-name="Capa 1">
    <g>
      <g>
        <path class="cls-1" d="m198.9,57.02v77.51h-17.64l-32.13-47.41v47.41h-17.41V57.02h17.52l32.24,47.41v-47.41h17.41Z"/>
        <path class="cls-1" d="m212.27,104.43v-47.41h17.41v47.18c0,8.54,6.29,14.94,14.94,14.94s14.94-6.4,14.94-14.94v-47.18h17.41v47.41c0,17.97-14.04,31.45-32.35,31.45s-32.35-13.48-32.35-31.45Z"/>
        <path class="cls-1" d="m342.37,118.13v16.4h-52.01V57.02h51.45v16.4h-34.04v13.93h30.33v16.4h-30.33v14.38h34.6Z"/>
        <path class="cls-1" d="m349.89,111.28h17.86c0,5.06,4.94,9.1,11.23,9.1,5.84,0,10.45-3.26,10.45-7.64,0-5.06-6.97-7.86-14.94-9.77-11.79-2.81-23.37-9.44-23.37-23.48s11.8-23.82,27.41-23.82,27.63,10.11,27.63,23.59h-17.86c0-4.61-4.27-8.09-10-8.09-5.17,0-9.32,2.81-9.32,6.97,0,4.94,6.29,7.75,13.93,9.55,12.36,3.03,24.38,8.87,24.38,23.37s-12.36,24.83-28.53,24.83-28.87-10.78-28.87-24.6Z"/>
        <path class="cls-1" d="m469.99,73.42h-20.33v61.11h-17.41v-61.11h-20.33v-16.4h58.08v16.4Z"/>
        <path class="cls-1" d="m542.67,118.13v16.4h-5.17c-12.36,0-21.12-4.83-26.4-14.38l-7.42-12.13h-6.07v26.51h-17.41V57.02h34.49c15.39,0,26.96,11.12,26.96,25.95,0,11.57-7.3,20.67-17.98,23.82l4.05,5.62c2.7,3.71,6.63,5.73,11.68,5.73h3.26Zm-45.05-25.28h16.74c5.39,0,9.44-4.16,9.44-9.66s-4.05-9.77-9.44-9.77h-16.74v19.43Z"/>
        <path class="cls-1" d="m600.98,120.94h-31.45l-4.83,13.59h-18.65l29.1-77.51h20.56l29.21,77.51h-19.1l-4.83-13.59Zm-5.62-16.06l-10.11-28.65-10.11,28.65h20.22Z"/>
        <path class="cls-1" d="m52.01,214.29v16.4H0v-77.51h51.45v16.4H17.41v13.93h30.33v16.4h-30.33v14.38h34.6Z"/>
        <path class="cls-1" d="m57.29,207.43h17.86c0,5.06,4.94,9.1,11.23,9.1,5.84,0,10.45-3.26,10.45-7.64,0-5.06-6.97-7.86-14.94-9.77-11.79-2.81-23.37-9.44-23.37-23.48s11.8-23.82,27.41-23.82,27.63,10.11,27.63,23.59h-17.86c0-4.61-4.27-8.09-10-8.09-5.17,0-9.32,2.81-9.32,6.97,0,4.94,6.29,7.75,13.93,9.55,12.36,3.03,24.38,8.87,24.38,23.37s-12.36,24.83-28.53,24.83-28.87-10.78-28.87-24.6Z"/>
        <path class="cls-1" d="m185.92,179.57c0,15.05-11.68,26.4-27.19,26.4h-17.97v24.71h-17.41v-77.51h35.38c15.5,0,27.19,11.35,27.19,26.4Zm-17.86,0c0-5.73-4.16-10-9.77-10h-17.52v20h17.52c5.62,0,9.77-4.38,9.77-10Z"/>
        <path class="cls-1" d="m245.13,214.29v16.4h-52.01v-77.51h51.45v16.4h-34.04v13.93h30.33v16.4h-30.33v14.38h34.6Z"/>
        <path class="cls-1" d="m249.96,191.93c0-22.8,17.64-40.11,41-40.11,20,0,35.95,12.81,39.99,30.89h-18.54c-3.48-8.43-11.57-14.15-21.46-14.15-13.14,0-23.14,10-23.14,23.37s10,23.37,23.14,23.37c9.89,0,17.98-5.73,21.46-14.15h18.54c-4.05,18.09-20,30.89-39.99,30.89-23.37,0-41-17.3-41-40.1Z"/>
        <path class="cls-1" d="m338.94,153.17h17.41v77.51h-17.41v-77.51Z"/>
        <path class="cls-1" d="m416.23,217.1h-31.45l-4.83,13.59h-18.65l29.1-77.51h20.56l29.21,77.51h-19.1l-4.83-13.59Zm-5.62-16.06l-10.11-28.65-10.11,28.65h20.22Z"/>
        <path class="cls-1" d="m493.75,214.29v16.4h-48.64v-77.51h17.41v61.11h31.23Z"/>
        <path class="cls-1" d="m501.39,153.17h17.41v77.51h-17.41v-77.51Z"/>
        <path class="cls-1" d="m601.48,191.93c0,22.13-16.96,38.76-39.54,38.76h-30.56v-77.51h30.56c22.58,0,39.54,16.63,39.54,38.76Zm-17.86,0c0-12.69-9.44-22.36-22.13-22.36h-12.69v44.71h12.69c12.69,0,22.13-9.66,22.13-22.35Z"/>
        <path class="cls-1" d="m653.72,217.1h-31.45l-4.83,13.59h-18.65l29.1-77.51h20.56l29.21,77.51h-19.1l-4.83-13.59Zm-5.62-16.06l-10.11-28.65-10.11,28.65h20.22Z"/>
        <path class="cls-1" d="m752.7,191.93c0,22.13-16.96,38.76-39.54,38.76h-30.56v-77.51h30.56c22.58,0,39.54,16.63,39.54,38.76Zm-17.86,0c0-12.69-9.44-22.36-22.13-22.36h-12.69v44.71h12.69c12.69,0,22.13-9.66,22.13-22.35Z"/>
      </g>
      <path class="cls-1" d="m541.74,5.33c-14.24-.97-27.47-1.8-40.44-2.45-10.35-.54-19.75-.94-28.66-1.26-27.65-1.08-55.76-1.62-83.59-1.62-44.44,0-88.71,1.37-131.53,4-7.6.47-15.25.97-22.85,1.51-1.95.11-3.93.25-5.84.4-.07,0-.29.04-.47.04l-.61.04c-34.71,2.56-69.46,6.02-103.63,10.24v4.58c30.1-3.64,60.3-6.7,90.15-9.05l1.12-.04c1.84-.14,5.77-.36,9.7-.47l2.2-.07c.47-.04.9-.07,1.33-.07,1.73-.18,3.71-.32,5.73-.43,7.57-.54,15.17-1.05,22.85-1.51,43.58-2.7,87.95-4.07,131.85-4.07,28.22,0,56.41.58,83.77,1.66,10.27.36,20.29.87,28.76,1.3,13.44.68,27.11,1.51,40.55,2.49,22.24,1.59,44.66,3.57,66.83,5.84v-5.23c-22.31-2.31-44.84-4.25-67.22-5.8Z"/>
    </g>
  </g>
</svg>