<?xml version="1.0" encoding="UTF-8" standalone="no"?>
<!-- Created with Inkscape (http://www.inkscape.org/) -->

<svg
   version="1.1"
   id="svg1"
   width="35.54129"
   height="35.541321"
   viewBox="0 0 35.54129 35.541321"
   xml:space="preserve"
   xmlns="http://www.w3.org/2000/svg"
   xmlns:svg="http://www.w3.org/2000/svg"><defs
     id="defs1" /><g
     id="g1"
     transform="translate(-197.72878,-730.05426)"><g
       id="g12-6-9"
       transform="matrix(0.06388645,0,0,0.06388645,69.857966,663.56292)"
       style="display:inline"><path
         id="path25-5-3"
         d="m 19183.9,4365.08 c 0,-1152.18 -934,-2086.18 -2086.2,-2086.18 -1152.2,0 -2086.2,934 -2086.2,2086.18 0,1152.19 934,2086.22 2086.2,2086.22 1152.2,0 2086.2,-934.03 2086.2,-2086.22"
         style="display:inline;fill:#1c4d2f;fill-opacity:1;fill-rule:nonzero;stroke:none"
         transform="matrix(0.13333328,0,0,-0.13333328,0,1900.9468)" /><path
         id="path26-0-1"
         d="m 16650.4,5455.08 c -8.4,13.27 -16.7,26.56 -25,39.85 -148.9,-109.16 -297.7,-218.32 -482.8,-354.02 142,-42.08 226.9,-67.22 306.6,-90.85 74.3,149.53 137.7,277.28 201.2,405.02 z m 1343.2,-335.96 c 7.2,17.59 14.4,35.17 21.6,52.75 -152.2,107.54 -304.4,215.07 -456.6,322.6 -6.3,-10.88 -12.7,-21.77 -19,-32.66 67.5,-136.84 134.9,-273.66 205.8,-417.51 86.1,25.96 167.2,50.39 248.2,74.82 z M 17562.1,3289 c 13.9,-16.1 27.8,-32.2 41.7,-48.4 178.6,156.5 357.3,313 535.9,469.4 -9.7,18.4 -19.3,36.7 -29,55.1 -110.3,24.5 -220.7,49 -320.6,71.2 -82.1,-197 -155.1,-372.2 -228,-547.3 z m -1159.8,537.4 c -111.6,-26.4 -215.1,-51 -318.7,-75.5 -7.1,-20.8 -14.1,-41.6 -21.2,-62.4 183.5,-152.3 367,-304.6 550.5,-456.8 10.3,13 20.5,26 30.8,39 -78.1,179.6 -156.1,359.3 -241.4,555.7 z m 1235.8,1042.03 c -174.1,-19.84 -314.1,-35.8 -457,-52.11 0,-105.91 0,-196.17 0,-289.78 168.2,0 325.7,0 496.8,0 -13.7,117.56 -25.7,220.48 -39.8,341.89 z m -452.2,679.41 c 0,-203.21 0,-389.95 0,-591.37 142.4,19.46 267.7,36.58 405.9,55.47 -86.6,230.24 -167.4,433.8 -405.9,535.9 z m -677.6,-1020.37 c 183.4,0 346.6,0 504.7,0 0,104.48 0,194.39 0,291.94 -155.5,16.36 -299.9,31.55 -455.8,47.96 -17.2,-119.43 -31.9,-221.79 -48.9,-339.9 z m 510.2,1031.46 c -245.6,-119.75 -337.7,-314.45 -413.7,-548.04 144.9,-17.39 274.6,-32.96 413.7,-49.65 0,208.61 0,387.87 0,597.69 z m 677.4,-1203.69 c -186.4,0 -349.9,0 -508.7,0 0,-115.44 0,-216.74 0,-320.44 163.5,-7.6 310.6,-14.5 469.8,-22 12.9,113.1 24.6,216.5 38.9,342.44 z m -675.4,-0.56 c -180.5,0 -344.5,0 -526.7,0 16.6,-130.08 31.1,-243.78 45.9,-359.88 175,17.5 326.6,32.7 480.8,48.1 0,108.8 0,201.7 0,311.78 z m 808.9,166.13 c 157.4,0 299.1,0 478.4,0 -64.7,175.05 -122.4,331.28 -181.5,491.18 -140.5,-45.2 -244.4,-78.63 -351.4,-113.06 18.8,-130.44 35.5,-246.22 54.5,-378.12 z m 17.6,-162.32 c -84.9,-385.19 -29.3,-451.39 377.8,-438.79 28.1,138.3 56.9,280.7 89,438.79 -176.2,0 -322.6,0 -466.8,0 z m -1430.6,536.98 c -372.8,147.67 -468.4,74.43 -496.2,-369.73 146.1,0 291.9,0 444,0 17.8,126.36 34.1,241.77 52.2,369.73 z M 15876,4359.39 c 38.9,-173.09 73,-324.99 108.9,-484.99 150.8,36.8 274,66.8 407.1,99.2 -12.8,133.6 -24.6,255.5 -37.1,385.79 -150.9,0 -291.2,0 -478.9,0 z M 17178.4,3167.5 c 293.4,168.7 377.8,419.5 453.8,701 -164.6,7.6 -304.9,14.1 -453.8,20.9 0,-240.9 0,-463.1 0,-721.9 z m -163.2,7 c 0,250 0,471.5 0,714.6 -154,-10.5 -296.3,-20.1 -459.2,-31.2 96.7,-290.8 172.8,-544 459.2,-683.4 z m -1263.9,1184.99 c -2.7,739.99 604.6,1351.34 1343,1351.74 738.1,0.4 1350.8,-611.53 1349.7,-1347.89 -1.1,-727.14 -606.2,-1335.74 -1336.6,-1344.34 -734.3,-8.6 -1353.3,603.2 -1356.1,1340.49"
         style="display:inline;fill:#ffffff;fill-opacity:1;fill-rule:nonzero;stroke:none"
         transform="matrix(0.13333328,0,0,-0.13333328,0,1900.9468)" /></g></g></svg>
